<svg width="27" height="27" viewBox="0 0 27 27" fill="none" xmlns="http://www.w3.org/2000/svg">
<path d="M18.9053 23.3539C19.2003 23.3539 19.4831 23.2368 19.6917 23.0282C19.9002 22.8196 20.0174 22.5368 20.0174 22.2418V16.2922C20.0174 15.784 20.3688 15.3536 20.8259 15.1346C21.7722 14.6831 22.5287 13.9119 22.9618 12.957C23.3948 12.0021 23.4767 10.9249 23.1928 9.91554C22.909 8.90617 22.2778 8.02951 21.4105 7.44027C20.5432 6.85102 19.4957 6.58708 18.4527 6.69501C18.0232 5.6966 17.3105 4.84596 16.4027 4.24826C15.4949 3.65057 14.4318 3.33203 13.3449 3.33203C12.2581 3.33203 11.195 3.65057 10.2872 4.24826C9.37942 4.84596 8.6667 5.6966 8.23718 6.69501C7.1947 6.58783 6.14785 6.85215 5.2812 7.44137C4.41456 8.03059 3.78377 8.90686 3.50005 9.9157C3.21633 10.9245 3.2979 12.0012 3.73038 12.9557C4.16286 13.9103 4.91848 14.6815 5.864 15.1334C6.32107 15.3536 6.67248 15.784 6.67248 16.2911V22.2418C6.67248 22.5368 6.78965 22.8196 6.9982 23.0282C7.20676 23.2368 7.48962 23.3539 7.78456 23.3539H18.9053Z" stroke="#FF7F50" stroke-width="2.22415" stroke-linecap="round" stroke-linejoin="round"/>
<path d="M6.67249 18.9053H20.0174" stroke="#FF7F50" stroke-width="2.22415" stroke-linecap="round" stroke-linejoin="round"/>
</svg>
