<svg width="26" height="26" viewBox="0 0 26 26" fill="none" xmlns="http://www.w3.org/2000/svg">
<path d="M20.4278 11.8262H5.37576C4.18819 11.8262 3.22546 12.7889 3.22546 13.9765V21.5025C3.22546 22.6901 4.18819 23.6528 5.37576 23.6528H20.4278C21.6154 23.6528 22.5781 22.6901 22.5781 21.5025V13.9765C22.5781 12.7889 21.6154 11.8262 20.4278 11.8262Z" stroke="#99A1AF" stroke-width="2.1503" stroke-linecap="round" stroke-linejoin="round"/>
<path d="M7.52606 11.8267V7.52614C7.52606 6.1004 8.09243 4.73306 9.10058 3.72491C10.1087 2.71676 11.4761 2.15039 12.9018 2.15039C14.3275 2.15039 15.6949 2.71676 16.703 3.72491C17.7112 4.73306 18.2776 6.1004 18.2776 7.52614V11.8267" stroke="#99A1AF" stroke-width="2.1503" stroke-linecap="round" stroke-linejoin="round"/>
</svg>
