<svg width="368" height="91" viewBox="0 0 368 91" fill="none" xmlns="http://www.w3.org/2000/svg">
<path d="M67.6958 85.4999C68.8749 85.4999 70.0057 85.0315 70.8395 84.1976C71.6733 83.3637 72.1416 82.2328 72.1416 81.0535V57.2648C72.1416 55.2328 73.5465 53.512 75.3738 52.636C79.157 50.831 82.1811 47.7474 83.9124 43.9293C85.6437 40.1113 85.9709 35.8043 84.8362 31.7686C83.7016 27.7327 81.178 24.2275 77.7108 21.8715C74.2437 19.5155 70.0558 18.4601 65.8864 18.8917C64.1693 14.8997 61.32 11.4986 57.6909 9.10875C54.0618 6.71895 49.8121 5.44531 45.467 5.44531C41.1219 5.44531 36.872 6.71895 33.243 9.10875C29.6138 11.4986 26.7646 14.8997 25.0474 18.8917C20.8799 18.4631 16.6949 19.52 13.2303 21.8759C9.76561 24.2318 7.24391 27.7355 6.10968 31.7692C4.97545 35.8029 5.30154 40.1076 7.03048 43.9242C8.75942 47.741 11.7801 50.8247 15.5601 52.6316C17.3873 53.512 18.7922 55.2328 18.7922 57.2604V81.0535C18.7922 82.2328 19.2606 83.3637 20.0943 84.1976C20.9281 85.0315 22.0589 85.4999 23.238 85.4999H67.6958Z" stroke="white" stroke-width="10.8913" stroke-linecap="round" stroke-linejoin="round"/>
<path d="M18.7881 67.71H72.1578" stroke="white" stroke-width="10.8913" stroke-linecap="round" stroke-linejoin="round"/>
<path d="M110.222 62.2471V28.6179H125.596C128.67 28.6179 131.313 29.1143 133.523 30.1072C135.764 31.1 137.494 32.5413 138.711 34.4309C139.928 36.2885 140.537 38.4985 140.537 41.0607C140.537 43.5909 139.928 45.7848 138.711 47.6424C137.494 49.468 135.764 50.8772 133.523 51.8701C131.313 52.8309 128.67 53.3113 125.596 53.3113H115.507L119.735 49.3239V62.2471H110.222ZM131.024 62.2471L122.665 49.9964H132.802L141.209 62.2471H131.024ZM119.735 50.3327L115.507 45.9609H125.019C127.005 45.9609 128.478 45.5286 129.439 44.6638C130.432 43.7991 130.928 42.598 130.928 41.0607C130.928 39.4913 130.432 38.2743 129.439 37.4095C128.478 36.5448 127.005 36.1124 125.019 36.1124H115.507L119.735 31.7406V50.3327ZM158.996 62.6794C155.921 62.6794 153.231 62.1029 150.925 60.9499C148.651 59.7649 146.873 58.1635 145.592 56.1458C144.343 54.096 143.719 51.774 143.719 49.1797C143.719 46.5855 144.327 44.2795 145.544 42.2617C146.793 40.2119 148.507 38.6266 150.685 37.5056C152.863 36.3526 155.313 35.7761 158.035 35.7761C160.597 35.7761 162.935 36.3046 165.049 37.3615C167.163 38.3864 168.844 39.9077 170.094 41.9254C171.343 43.9432 171.967 46.3933 171.967 49.2758C171.967 49.5961 171.951 49.9644 171.919 50.3808C171.887 50.7971 171.855 51.1815 171.823 51.5338H151.213V46.7296H166.971L163.512 48.0748C163.544 46.8897 163.32 45.8648 162.839 45.0001C162.391 44.1353 161.75 43.4628 160.918 42.9823C160.117 42.5019 159.172 42.2617 158.083 42.2617C156.994 42.2617 156.033 42.5019 155.201 42.9823C154.4 43.4628 153.775 44.1514 153.327 45.0481C152.879 45.9129 152.654 46.9378 152.654 48.1228V49.516C152.654 50.7971 152.911 51.9021 153.423 52.8309C153.968 53.7597 154.736 54.4803 155.729 54.9928C156.722 55.4732 157.907 55.7134 159.284 55.7134C160.565 55.7134 161.654 55.5372 162.551 55.1849C163.48 54.8006 164.393 54.2241 165.289 53.4554L170.094 58.4518C168.844 59.829 167.307 60.8859 165.482 61.6225C163.656 62.3271 161.494 62.6794 158.996 62.6794ZM189.483 62.6794C186.601 62.6794 184.022 62.1029 181.749 60.9499C179.507 59.7969 177.745 58.2116 176.464 56.1938C175.183 54.144 174.542 51.806 174.542 49.1797C174.542 46.5534 175.183 44.2314 176.464 42.2137C177.745 40.1959 179.507 38.6266 181.749 37.5056C184.022 36.3526 186.601 35.7761 189.483 35.7761C192.43 35.7761 194.976 36.4006 197.122 37.6497C199.268 38.8988 200.789 40.6603 201.686 42.9343L194.624 46.5374C194.015 45.3204 193.263 44.4396 192.366 43.8951C191.469 43.3186 190.492 43.0304 189.435 43.0304C188.378 43.0304 187.417 43.2706 186.553 43.751C185.688 44.2314 184.999 44.936 184.487 45.8648C184.006 46.7616 183.766 47.8666 183.766 49.1797C183.766 50.5249 184.006 51.6619 184.487 52.5907C184.999 53.5195 185.688 54.2241 186.553 54.7045C187.417 55.1849 188.378 55.4251 189.435 55.4251C190.492 55.4251 191.469 55.1529 192.366 54.6084C193.263 54.0319 194.015 53.1352 194.624 51.9181L201.686 55.5212C200.789 57.7952 199.268 59.5567 197.122 60.8058C194.976 62.0549 192.43 62.6794 189.483 62.6794ZM205.029 62.2471V36.2085H214.157V62.2471H205.029ZM209.593 33.326C207.927 33.326 206.582 32.8616 205.557 31.9328C204.532 31.0039 204.02 29.8509 204.02 28.4738C204.02 27.0966 204.532 25.9436 205.557 25.0147C206.582 24.0859 207.927 23.6215 209.593 23.6215C211.258 23.6215 212.603 24.0699 213.628 24.9667C214.653 25.8315 215.166 26.9524 215.166 28.3296C215.166 29.7709 214.653 30.9719 213.628 31.9328C212.635 32.8616 211.29 33.326 209.593 33.326ZM236.471 62.6794C234.261 62.6794 232.371 62.199 230.802 61.2382C229.233 60.2453 228.032 58.7721 227.199 56.8184C226.398 54.8326 225.998 52.3024 225.998 49.2278C225.998 46.1211 226.382 43.5909 227.151 41.6372C227.92 39.6515 229.073 38.1782 230.61 37.2173C232.179 36.2565 234.133 35.7761 236.471 35.7761C238.841 35.7761 240.987 36.3366 242.909 37.4576C244.862 38.5465 246.4 40.0998 247.521 42.1176C248.674 44.1033 249.25 46.4734 249.25 49.2278C249.25 51.9822 248.674 54.3682 247.521 56.386C246.4 58.4037 244.862 59.9571 242.909 61.046C240.987 62.135 238.841 62.6794 236.471 62.6794ZM220.089 71.5672V36.2085H228.784V40.6283L228.736 49.2278L229.217 57.8753V71.5672H220.089ZM234.549 55.4251C235.574 55.4251 236.487 55.1849 237.288 54.7045C238.12 54.2241 238.777 53.5195 239.257 52.5907C239.77 51.6619 240.026 50.5409 240.026 49.2278C240.026 47.9146 239.77 46.7937 239.257 45.8648C238.777 44.936 238.12 44.2314 237.288 43.751C236.487 43.2706 235.574 43.0304 234.549 43.0304C233.524 43.0304 232.596 43.2706 231.763 43.751C230.962 44.2314 230.306 44.936 229.793 45.8648C229.313 46.7937 229.073 47.9146 229.073 49.2278C229.073 50.5409 229.313 51.6619 229.793 52.5907C230.306 53.5195 230.962 54.2241 231.763 54.7045C232.596 55.1849 233.524 55.4251 234.549 55.4251ZM267.137 62.6794C264.062 62.6794 261.372 62.1029 259.066 60.9499C256.792 59.7649 255.014 58.1635 253.733 56.1458C252.484 54.096 251.859 51.774 251.859 49.1797C251.859 46.5855 252.468 44.2795 253.685 42.2617C254.934 40.2119 256.648 38.6266 258.825 37.5056C261.003 36.3526 263.453 35.7761 266.176 35.7761C268.738 35.7761 271.076 36.3046 273.19 37.3615C275.304 38.3864 276.985 39.9077 278.234 41.9254C279.483 43.9432 280.108 46.3933 280.108 49.2758C280.108 49.5961 280.092 49.9644 280.06 50.3808C280.028 50.7971 279.996 51.1815 279.964 51.5338H259.354V46.7296H275.112L271.653 48.0748C271.685 46.8897 271.46 45.8648 270.98 45.0001C270.532 44.1353 269.891 43.4628 269.058 42.9823C268.258 42.5019 267.313 42.2617 266.224 42.2617C265.135 42.2617 264.174 42.5019 263.341 42.9823C262.541 43.4628 261.916 44.1514 261.468 45.0481C261.019 45.9129 260.795 46.9378 260.795 48.1228V49.516C260.795 50.7971 261.051 51.9021 261.564 52.8309C262.108 53.7597 262.877 54.4803 263.87 54.9928C264.863 55.4732 266.048 55.7134 267.425 55.7134C268.706 55.7134 269.795 55.5372 270.692 55.1849C271.621 54.8006 272.533 54.2241 273.43 53.4554L278.234 58.4518C276.985 59.829 275.448 60.8859 273.622 61.6225C271.797 62.3271 269.635 62.6794 267.137 62.6794ZM299.514 62.2471V57.3949L298.89 56.1938V47.2581C298.89 45.8168 298.442 44.7118 297.545 43.9432C296.68 43.1425 295.287 42.7421 293.365 42.7421C292.116 42.7421 290.851 42.9503 289.57 43.3667C288.289 43.751 287.2 44.2955 286.303 45.0001L283.228 38.8027C284.702 37.8419 286.463 37.1052 288.513 36.5928C290.595 36.0483 292.661 35.7761 294.71 35.7761C298.938 35.7761 302.205 36.7529 304.511 38.7066C306.849 40.6283 308.018 43.6549 308.018 47.7865V62.2471H299.514ZM291.828 62.6794C289.746 62.6794 287.984 62.3271 286.543 61.6225C285.102 60.9179 283.997 59.9571 283.228 58.74C282.492 57.523 282.123 56.1618 282.123 54.6565C282.123 53.0551 282.524 51.6779 283.324 50.5249C284.157 49.3399 285.422 48.4431 287.12 47.8346C288.817 47.194 291.011 46.8737 293.701 46.8737H299.851V51.6299H294.951C293.477 51.6299 292.436 51.8701 291.828 52.3505C291.251 52.8309 290.963 53.4715 290.963 54.2721C290.963 55.0728 291.267 55.7134 291.876 56.1938C292.484 56.6742 293.317 56.9144 294.374 56.9144C295.367 56.9144 296.264 56.6742 297.064 56.1938C297.897 55.6814 298.506 54.9127 298.89 53.8878L300.139 57.2507C299.659 59.0443 298.714 60.4055 297.305 61.3343C295.927 62.2311 294.102 62.6794 291.828 62.6794ZM323.244 62.6794C321.034 62.6794 318.872 62.4232 316.758 61.9108C314.676 61.3983 312.995 60.7578 311.714 59.9891L314.452 53.7437C315.669 54.4803 317.094 55.0728 318.728 55.5212C320.361 55.9376 321.963 56.1458 323.532 56.1458C325.069 56.1458 326.126 55.9856 326.703 55.6654C327.311 55.3451 327.615 54.9127 327.615 54.3682C327.615 53.8558 327.327 53.4875 326.751 53.2633C326.206 53.007 325.47 52.8149 324.541 52.6868C323.644 52.5587 322.651 52.4145 321.562 52.2544C320.473 52.0943 319.368 51.8861 318.247 51.6299C317.158 51.3416 316.15 50.9252 315.221 50.3808C314.324 49.8043 313.603 49.0356 313.059 48.0748C312.514 47.1139 312.242 45.8969 312.242 44.4236C312.242 42.7582 312.723 41.2849 313.683 40.0038C314.676 38.6906 316.118 37.6657 318.007 36.9291C319.897 36.1604 322.203 35.7761 324.925 35.7761C326.751 35.7761 328.592 35.9683 330.45 36.3526C332.34 36.7049 333.925 37.2494 335.206 37.986L332.468 44.1834C331.187 43.4467 329.905 42.9503 328.624 42.6941C327.343 42.4058 326.126 42.2617 324.973 42.2617C323.436 42.2617 322.347 42.4379 321.706 42.7902C321.098 43.1425 320.794 43.5749 320.794 44.0873C320.794 44.5998 321.066 45.0001 321.61 45.2883C322.155 45.5446 322.875 45.7528 323.772 45.9129C324.701 46.041 325.71 46.1851 326.799 46.3453C327.888 46.4734 328.977 46.6816 330.066 46.9698C331.187 47.2581 332.195 47.6904 333.092 48.2669C334.021 48.8114 334.758 49.5641 335.302 50.5249C335.847 51.4537 336.119 52.6547 336.119 54.128C336.119 55.7294 335.622 57.1707 334.63 58.4518C333.669 59.7329 332.227 60.7578 330.306 61.5264C328.416 62.2951 326.062 62.6794 323.244 62.6794ZM344.051 71.9995C342.674 71.9995 341.281 71.7753 339.871 71.327C338.494 70.9106 337.373 70.3501 336.508 69.6455L339.679 63.2559C340.224 63.7364 340.848 64.1047 341.553 64.3609C342.289 64.6492 343.01 64.7933 343.715 64.7933C344.708 64.7933 345.492 64.5691 346.069 64.1207C346.645 63.6723 347.142 62.9677 347.558 62.0069L348.759 58.9802L349.48 58.0674L358.319 36.2085H367.015L355.773 63.304C354.876 65.5459 353.836 67.2914 352.65 68.5405C351.497 69.8216 350.2 70.7184 348.759 71.2309C347.35 71.7433 345.781 71.9995 344.051 71.9995ZM347.606 63.352L336.124 36.2085H345.492L353.948 57.2507L347.606 63.352Z" fill="white"/>
</svg>
